<svg xmlns="http://www.w3.org/2000/svg" viewBox="0 0 1600 900" preserveAspectRatio="xMidYMid slice" role="img" aria-label="Baitul Habib Moschee Kiel Illustration">
  <defs>
    <linearGradient id="bg" x1="0" y1="0" x2="1" y2="1">
      <stop offset="0" stop-color="#084634"/>
      <stop offset="1" stop-color="#0f6b4f"/>
    </linearGradient>
    <radialGradient id="glow" cx="0.8" cy="0.2" r="0.6">
      <stop offset="0" stop-color="#ffffff" stop-opacity="0.18"/>
      <stop offset="1" stop-color="#ffffff" stop-opacity="0"/>
    </radialGradient>
  </defs>
  <rect width="1600" height="900" fill="url(#bg)"/>
  <rect width="1600" height="900" fill="url(#glow)"/>
  <g fill="#ffffff" opacity="0.10">
    <circle cx="1300" cy="220" r="140"/>
    <circle cx="1350" cy="190" r="140" fill="#084634"/>
  </g>
  <g fill="#ffffff" opacity="0.08">
    <path d="M250 250 l28 70 l70 28 l-70 28 l-28 70 l-28-70 l-70-28 l70-28 z"/>
  </g>
  <g fill="#ffffff" opacity="0.20">
    <rect x="470" y="470" width="42" height="300" rx="21"/>
    <circle cx="491" cy="470" r="28"/>
    <rect x="485" y="408" width="12" height="44"/>
    <rect x="1088" y="470" width="42" height="300" rx="21"/>
    <circle cx="1109" cy="470" r="28"/>
    <rect x="1103" y="408" width="12" height="44"/>
    <rect x="640" y="540" width="320" height="230"/>
    <path d="M650 540 a150 150 0 0 1 300 0 z"/>
    <rect x="794" y="338" width="12" height="56"/>
    <circle cx="800" cy="330" r="14"/>
  </g>
  <g fill="#084634" opacity="0.35">
    <path d="M762 770 L762 668 a38 38 0 0 1 76 0 L838 770 Z"/>
  </g>
</svg>
